<svg xmlns="http://www.w3.org/2000/svg" width="257" height="50" viewBox="0 0 257 50">
  <g fill="#FFF" fill-rule="evenodd">
    <text font-family="Montserrat-Bold, Montserrat" font-size="24" font-weight="bold">
      <tspan x="0" y="43">@acopioenbici</tspan>
    </text>
    <g transform="translate(195)">
      <path d="M20.4107386,39.7142735 L12.0000143,39.7142735 C10.5803698,39.7142735 9.77679737,38.1071287 10.6339412,36.9821273 L15.6696615,30.258905 C14.5446602,29.7231901 13.3125159,29.4285469 12.0000143,29.4285469 C7.28572297,29.4285469 3.42857552,33.2856944 3.42857552,37.9999857 C3.42857552,42.714277 7.28572297,46.5714245 12.0000143,46.5714245 C16.151805,46.5714245 19.6071662,43.6249924 20.4107386,39.7142735 Z M15.4285898,36.2856979 L20.4107386,36.2856979 C20.0893097,34.7856961 19.3928803,33.4196231 18.4018077,32.3214075 L15.4285898,36.2856979 Z M28.285748,36.2856979 L36.0000429,25.9999714 L23.1428847,25.9999714 L20.4910959,29.5356899 C22.2857409,31.3035491 23.4910994,33.6606948 23.8660999,36.2856979 L28.285748,36.2856979 Z M58.2857838,37.9999857 C58.2857838,33.2856944 54.4286363,29.4285469 49.714345,29.4285469 C48.5625579,29.4285469 47.491128,29.6696186 46.4732697,30.0714048 L51.1339895,37.0356988 C51.6697045,37.8392712 51.4554185,38.9107011 50.6786318,39.4196302 C50.3839886,39.6339162 50.0357739,39.7142735 49.714345,39.7142735 C49.1518443,39.7142735 48.6161294,39.446416 48.2947004,38.9374868 L43.6339806,31.9731928 C42.1071931,33.5267661 41.1429062,35.64284 41.1429062,37.9999857 C41.1429062,42.714277 45.0000536,46.5714245 49.714345,46.5714245 C54.4286363,46.5714245 58.2857838,42.714277 58.2857838,37.9999857 Z M61.7143593,37.9999857 C61.7143593,44.616065 56.3304243,50 49.714345,50 C43.0982657,50 37.7143307,44.616065 37.7143307,37.9999857 C37.7143307,34.4642672 39.267904,31.2767634 41.7054069,29.0803322 L39.9643334,26.4553291 L30.5089649,39.0178441 C30.187536,39.4732017 29.6786068,39.7142735 29.1428919,39.7142735 L23.8660999,39.7142735 C23.0357417,45.5267804 18.053593,50 12.0000143,50 C5.38393499,50 0,44.616065 0,37.9999857 C0,31.3839064 5.38393499,25.9999714 12.0000143,25.9999714 C14.0893025,25.9999714 16.044662,26.5356863 17.7589497,27.4731874 L21.428597,22.5713959 L25.7143164,22.5713959 L37.366116,22.5713959 L35.0893275,19.1428204 L35.6820068,15.7943726 C36.2445075,15.7943726 36.7802224,16.0890158 37.1016514,16.5443735 L44.5714817,27.1785442 C46.125055,26.4285433 47.8661285,25.9999714 49.714345,25.9999714 C56.3304243,25.9999714 61.7143593,31.3839064 61.7143593,37.9999857 Z"/>
      <rect width="17" height="17" y="6" rx="2"/>
      <path d="M19.7915721,19.4652901 L25.2936386,21.5773355 C26.7106334,22.1600387 27.7390408,22.8544251 27.7390408,24.2657915 L27.7390408,44.8043791 C27.7390408,46.1361412 26.6594342,47.2157477 25.3276721,47.2157477 C23.99591,47.2157477 22.9163035,46.1361412 22.9163035,44.8043791 L22.9163035,25.8306129 L15.163069,22.8544251 C14.4434832,22.8195663 13.7299712,22.5517261 13.1440654,22.042406 C11.757658,20.8372205 11.6107487,18.7363194 12.8159343,17.349912 L21.5330685,7.32199618 C22.738254,5.93558882 24.8391552,5.7886795 26.2255625,6.99386504 C26.9520417,7.62538379 27.3340622,9.41451268 27.3677857,9.39457578 L30.3099365,15.7426758 L35.5686795,15.7426758 C36.5819342,15.7426758 37.4033395,16.5640811 37.4033395,17.5773358 C37.4033395,18.5905906 36.5819342,19.4119958 35.5686795,19.4119958 L30.2639739,19.4119958 C30.2276527,19.4337667 28.6933546,19.4194177 28.0616233,18.954709 C27.691369,18.4920796 26.7397622,16.5857698 25.2068027,13.2357798 L19.7915721,19.4652901 Z M29.8024876,8.16765502 C27.6980354,8.16765502 25.9920399,6.46165945 25.9920399,4.35720727 C25.9920399,2.25275509 27.6980354,0.546759529 29.8024876,0.546759529 C31.9069398,0.546759529 33.6129353,2.25275509 33.6129353,4.35720727 C33.6129353,6.46165945 31.9069398,8.16765502 29.8024876,8.16765502 Z"/>
    </g>
  </g>
</svg>
