<svg xmlns="http://www.w3.org/2000/svg" viewBox="0 0 339.99 65.46"><defs><style>.cls-1{fill:#4a4a4a;}</style></defs><title>acopioenbici-logo-footer.svg</title><g id="Capa_2" data-name="Capa 2"><g id="Capa_1-2" data-name="Capa 1"><path class="cls-1" d="M325.09,35.66a15,15,0,0,0-2.17.16l-4.25-13.89,0-.12A2.12,2.12,0,0,0,317,18.38h-2.12L302.59,9.08a5.15,5.15,0,0,0-1.38-1.43,4,4,0,0,0-1.6-.57,4.2,4.2,0,0,0-3.19.93,4.14,4.14,0,0,0-.48.47L285.1,21a4.12,4.12,0,0,0,1.08,6.29h-.29a2.12,2.12,0,0,0,0,4.24h4.24l-4.47,5.94a14.8,14.8,0,0,0-4.83-1.63l.14-5.61c-.09-1.78-.78-3.3-2.47-3.26H265.68a2.12,2.12,0,0,0,0,4.24h11l-.12,4.58a14.9,14.9,0,1,0,16.71,16.89h5.19a4.47,4.47,0,0,0,3.29-.91l15.2-16h1.5l.38,1.26a14.9,14.9,0,1,0,6.24-1.37Zm-44.38,4.51a10.53,10.53,0,0,1,2.32.77l-2.42,3.21Zm-2.17,21a10.61,10.61,0,0,1-2.07-21l-.25,9.8c-.07,2.83,2.77,2.72,2.87,2.72h9.85A10.61,10.61,0,0,1,278.55,61.17Zm4.15-12.73,3.74-5a10.58,10.58,0,0,1,2.5,5Zm15.16-1.11a2.81,2.81,0,0,0,2.17.12l-.94,1h-5.8A14.86,14.86,0,0,0,289.06,40l3.19-4.23h8.08l-3.77,7.79A2.83,2.83,0,0,0,297.86,47.33Zm-3.45-15.8h0a2.13,2.13,0,0,0,1.9-2.11,2.1,2.1,0,0,0-.13-.72h7.57l-1.37,2.84Zm7.48,14,4.71-9.73h4.53Zm6.76-14,2.15-4.43a2.83,2.83,0,0,0-1.31-3.77h0a2.8,2.8,0,0,0-1.34-.28H294.25l7.89-9.11,10.32,7.28c.09.07.3.17.3.17l1.78,1.22a3.74,3.74,0,0,0,.09.56l2.56,8.36Zm16.44,29.64a10.61,10.61,0,0,1-5-20l3,9.92a2.12,2.12,0,1,0,4.06-1.24l-3-9.88c.3,0,.59,0,.9,0a10.61,10.61,0,1,1,0,21.22Z"/><circle class="cls-1" cx="306.2" cy="4.7" r="4.7"/><rect class="cls-1" x="259.59" y="4.56" width="21.29" height="21.29" rx="4" ry="4"/><path class="cls-1" d="M40.7,32a26.07,26.07,0,0,0-8.62,1.69l1.6,4.79A16.76,16.76,0,0,1,39,37.32c1.76,0,2.68.7,2.71,1.92h-4c-4.44.06-6.77,1.88-6.77,5.33s2.14,5.49,5.84,5.49a5.75,5.75,0,0,0,4.92-2.2v1.88h7.06V38.44C48.75,34.32,45.75,32,40.7,32Zm1,12.2a2.94,2.94,0,0,1-2.43,1.34A1.43,1.43,0,0,1,37.67,44c0-.93.54-1.4,1.53-1.4h2.49Z"/><path class="cls-1" d="M60.05,37.83a2.39,2.39,0,0,1,2.24,1.66L68,37.07a8.65,8.65,0,0,0-8.27-5c-5.59,0-9.23,3.58-9.23,9.07S54.11,50,59.67,50c4,0,7.06-1.79,8.34-4.89l-5.81-2.68c-.38,1.31-1.12,1.88-2.14,1.88-1.41,0-2.3-1.28-2.3-3.26S58.65,37.83,60.05,37.83Z"/><path class="cls-1" d="M78,32c-6,0-9.87,3.51-9.87,9S72,50,78,50s9.87-3.54,9.87-9S84,32,78,32Zm0,12.46c-1.6,0-2.62-1.34-2.62-3.39s1-3.39,2.62-3.39,2.62,1.34,2.62,3.39S79.56,44.48,78,44.48Z"/><path class="cls-1" d="M101.85,32a5.66,5.66,0,0,0-4.44,2V32.28H90.22V55.94h7.19V48A6,6,0,0,0,102,50c4.76,0,7.82-3.48,7.82-8.88S106.7,32,101.85,32ZM100,44.32c-1.56,0-2.59-1.34-2.59-3.39s1-3.39,2.59-3.39,2.62,1.34,2.62,3.39S101.59,44.32,100,44.32Z"/><rect class="cls-1" x="112.09" y="32.28" width="7.19" height="17.47"/><path class="cls-1" d="M115.7,23.65a3.49,3.49,0,0,0-3.64,3.64,3.64,3.64,0,1,0,7.28,0A3.49,3.49,0,0,0,115.7,23.65Z"/><path class="cls-1" d="M131.38,32c-6,0-9.87,3.51-9.87,9s3.86,9,9.87,9,9.87-3.54,9.87-9S137.39,32,131.38,32Zm0,12.46c-1.6,0-2.62-1.34-2.62-3.39s1-3.39,2.62-3.39S134,39,134,41.09,133,44.48,131.38,44.48Z"/><path class="cls-1" d="M151.53,32c-5.62,0-9.33,3.54-9.33,9.07S145.75,50,151.72,50a10.28,10.28,0,0,0,7.92-3.19l-3.74-3.67a5.24,5.24,0,0,1-3.54,1.56,2.88,2.88,0,0,1-2.91-2.08h11.37C161.21,36.17,157.63,32,151.53,32Zm-2.24,7.28c.29-1.47,1.05-2.49,2.3-2.49a2.14,2.14,0,0,1,2,2.49Z"/><path class="cls-1" d="M175.57,32a6.1,6.1,0,0,0-5.3,2.81V32.28h-7.19V49.75h7.19V41.09c0-1.69.89-2.81,2.3-2.81a2.11,2.11,0,0,1,2.08,2.4v9.07h7.19V38.6C181.83,34.58,179.25,32,175.57,32Z"/><path class="cls-1" d="M196.65,32a5.66,5.66,0,0,0-4.44,2V26H185v23.7h7.19V48a6,6,0,0,0,4.63,2c4.76,0,7.83-3.48,7.83-8.88S201.5,32,196.65,32Zm-1.85,12.3c-1.56,0-2.59-1.34-2.59-3.39s1-3.39,2.59-3.39,2.62,1.34,2.62,3.39S196.39,44.32,194.79,44.32Z"/><rect class="cls-1" x="206.89" y="32.28" width="7.19" height="17.47"/><path class="cls-1" d="M210.5,23.65a3.49,3.49,0,0,0-3.64,3.64,3.64,3.64,0,1,0,7.28,0A3.49,3.49,0,0,0,210.5,23.65Z"/><path class="cls-1" d="M225.86,37.83a2.39,2.39,0,0,1,2.24,1.66l5.72-2.43a8.65,8.65,0,0,0-8.27-5c-5.59,0-9.23,3.58-9.23,9.07S219.92,50,225.48,50c4,0,7.06-1.79,8.34-4.89L228,42.43c-.38,1.31-1.12,1.88-2.14,1.88-1.41,0-2.3-1.28-2.3-3.26S224.46,37.83,225.86,37.83Z"/><rect class="cls-1" x="235.5" y="32.28" width="7.19" height="17.47"/><path class="cls-1" d="M239.11,23.65a3.49,3.49,0,0,0-3.64,3.64,3.64,3.64,0,1,0,7.28,0A3.49,3.49,0,0,0,239.11,23.65Z"/><path class="cls-1" d="M22.7,27.7H16.89L16.24,33H12.42l.65-5.34H7.26L6.61,33H1.89L1.24,38.6H5.92l-.51,4H.69L0,48.15H4.72l-.62,5H9.92l.62-5h3.81l-.62,5h5.81l.62-5h4.72l.69-5.56H20.85l.51-4h4.76L26.77,33H22ZM15,42.59H11.22l.51-4h3.81Z"/></g></g></svg>